<?xml version="1.0" standalone="no"?>
<!DOCTYPE svg PUBLIC "-//W3C//DTD SVG 20010904//EN"
 "http://www.w3.org/TR/2001/REC-SVG-20010904/DTD/svg10.dtd">
<svg version="1.0" xmlns="http://www.w3.org/2000/svg"
 width="1920.000000pt" height="1920.000000pt" viewBox="0 0 1920.000000 1920.000000"
 preserveAspectRatio="xMidYMid meet">
<metadata>
Created by potrace 1.11, written by Peter Selinger 2001-2013
</metadata>
<g transform="translate(0.000000,1920.000000) scale(0.100000,-0.100000)"
fill="#000000" stroke="none">
<path d="M9790 13625 l0 -455 -950 0 -950 0 0 -430 0 -430 -890 0 -890 0 0
-675 0 -675 -870 0 -870 0 0 810 0 810 -820 0 -820 0 0 -800 0 -800 810 0 810
0 0 -885 0 -885 -810 0 -810 0 0 -935 0 -935 820 0 820 0 0 925 0 925 865 0
865 0 0 -655 0 -655 890 0 890 0 0 -745 0 -745 955 0 955 0 0 -530 0 -530 870
0 870 0 0 515 0 515 900 0 900 0 0 235 0 235 635 0 635 0 0 465 0 465 585 0
585 0 0 445 0 445 230 0 230 0 0 800 0 800 -275 0 -275 0 0 580 0 580 -590 0
-590 0 0 410 0 410 -585 0 -585 0 0 505 0 505 -910 0 -910 0 0 420 0 420 -860
0 -860 0 0 -455z"/>
</g>
</svg>
